<?xml version="1.0" encoding="UTF-8" standalone="no"?>
<!-- Created with Inkscape (http://www.inkscape.org/) -->

<svg
   viewBox="0 0 113.59538 184.73831"
   version="1.1"
   id="svg1"
   xml:space="preserve"
   xmlns="http://www.w3.org/2000/svg"
   xmlns:svg="http://www.w3.org/2000/svg"
   style="--main-color: #f5bc40; --shine-color: #f8d648; --outline-color: #f2a33a;"
>
   <defs id="defs1" />
     <g id="layer1" transform="translate(-49.600035,-59.357132)">
     <path
       style="color:#000000;font-style:normal;font-variant:normal;font-weight:normal;font-stretch:normal;font-size:medium;line-height:normal;font-family:sans-serif;font-variant-ligatures:normal;font-variant-position:normal;font-variant-caps:normal;font-variant-numeric:normal;font-variant-alternates:normal;font-variant-east-asian:normal;font-feature-settings:normal;font-variation-settings:normal;text-indent:0;text-align:start;text-decoration-line:none;text-decoration-style:solid;text-decoration-color:#000000;letter-spacing:normal;word-spacing:normal;text-transform:none;writing-mode:lr-tb;direction:ltr;text-orientation:mixed;dominant-baseline:auto;baseline-shift:baseline;text-anchor:start;white-space:normal;shape-padding:0;shape-margin:0;inline-size:0;clip-rule:nonzero;display:inline;overflow:visible;visibility:visible;isolation:auto;mix-blend-mode:normal;color-interpolation:sRGB;color-interpolation-filters:linearRGB;solid-color:#000000;solid-opacity:1;vector-effect:none;fill:#eb4d40;fill-opacity:1;fill-rule:nonzero;stroke:none;stroke-linecap:butt;stroke-linejoin:miter;stroke-miterlimit:4;stroke-dasharray:none;stroke-dashoffset:0;stroke-opacity:1;-inkscape-stroke:none;color-rendering:auto;image-rendering:auto;shape-rendering:auto;text-rendering:auto;enable-background:accumulate;stop-color:#000000"
       d="m 78.161691,212.08087 v -32.01458 h 56.797219 v 32.01458 32.01459 h -3.52778 -3.52778 v -3.52778 -3.52778 h -3.52412 -3.52413 l -0.0478,-3.57187 -0.0478,-3.57188 -3.57187,-0.0478 -3.57188,-0.0477 v -3.52412 -3.52413 h -7.05555 -7.055559 v 3.52413 3.52412 l -3.57187,0.0477 -3.57188,0.0478 -0.0477,3.57188 -0.0478,3.57187 h -3.52412 -3.52413 v 3.52778 3.52778 h -3.52777 -3.52778 z"
       id="path16-1" />
       <path
       style="fill:#b8382a;fill-opacity:1;stroke-width:1.00553"
       d="m 85.140051,212.14723 v -24.9197 h -3.4586 -3.45861 v -3.5473 -3.54729 h 28.378319 28.37833 v 3.54729 3.5473 h -3.45861 -3.45861 v 24.9197 24.91972 h -3.54729 -3.54729 v -24.91972 -24.9197 H 106.60116 92.234641 v 24.9197 24.91972 h -3.5473 -3.54729 z"
       id="path17" />
       <path
       style="fill:#b2b2b2;fill-opacity:1;stroke-width:0.991109"
       d="m 78.064351,179.81716 h -3.49642 -3.49642 v -3.49641 -3.49641 h -3.30729 c -1.81901,0 -3.41207,-0.04 -3.54012,-0.0891 -0.18408,-0.0704 -0.22161,-0.70173 -0.17924,-3.01566 0.0294,-1.60962 0.006,-3.18226 -0.0517,-3.49474 l -0.1052,-0.56817 h -3.48849 -3.4885 v -3.49642 -3.49641 h -3.49679 -3.49681 l 0.0441,-38.8539 0.0441,-38.853905 3.44902,-0.04737 3.44903,-0.04737 0.0474,-3.449031 0.0474,-3.449021 3.4011,-0.04757 c 2.45297,-0.0343 3.43911,-0.107437 3.53744,-0.262228 0.075,-0.118051 0.13755,-1.689684 0.13902,-3.492521 l 0.003,-3.277886 h 3.49641 3.49642 v -3.496417 -3.496406 h 35.313779 35.31378 v 3.496406 3.496417 h 3.49642 3.49642 l 0.003,3.277886 c 9.9e-4,1.802837 0.064,3.37447 0.13902,3.492521 0.0984,0.154791 1.08448,0.227896 3.53743,0.262228 l 3.40111,0.04757 0.0474,3.449021 0.0474,3.449031 3.44904,0.04737 3.44902,0.04737 0.0441,38.853905 0.0441,38.8539 h -3.4968 -3.49681 v 3.49641 3.49642 h -3.4857 -3.4857 l -0.10924,0.74298 c -0.06,0.40865 -0.0845,1.9813 -0.0544,3.49477 0.0432,2.1693 0.006,2.77063 -0.178,2.84084 -0.12804,0.049 -1.7211,0.0891 -3.54012,0.0891 h -3.30729 v 3.4964 3.49642 h -3.49594 -3.49594 z"
       id="path15" />
       <path
       style="color:#000000;font-style:normal;font-variant:normal;font-weight:normal;font-stretch:normal;font-size:medium;line-height:normal;font-family:sans-serif;font-variant-ligatures:normal;font-variant-position:normal;font-variant-caps:normal;font-variant-numeric:normal;font-variant-alternates:normal;font-variant-east-asian:normal;font-feature-settings:normal;font-variation-settings:normal;text-indent:0;text-align:start;text-decoration-line:none;text-decoration-style:solid;text-decoration-color:#000000;letter-spacing:normal;word-spacing:normal;text-transform:none;writing-mode:lr-tb;direction:ltr;text-orientation:mixed;dominant-baseline:auto;baseline-shift:baseline;text-anchor:start;white-space:normal;shape-padding:0;shape-margin:0;inline-size:0;clip-rule:nonzero;display:inline;overflow:visible;visibility:visible;isolation:auto;mix-blend-mode:normal;color-interpolation:sRGB;color-interpolation-filters:linearRGB;solid-color:#000000;solid-opacity:1;vector-effect:none;fill:#767676;fill-opacity:1;fill-rule:nonzero;stroke:none;stroke-linecap:butt;stroke-linejoin:miter;stroke-miterlimit:4;stroke-dasharray:none;stroke-dashoffset:0;stroke-opacity:1;-inkscape-stroke:none;color-rendering:auto;image-rendering:auto;shape-rendering:auto;text-rendering:auto;enable-background:accumulate;stop-color:#000000;stop-opacity:1"
       d="m 77.999541,180.09533 h -3.52778 -3.52778 v -3.52778 -3.52777 h 35.454169 35.45416 v 3.52777 3.52778 h -3.52777 -3.52778 z m -14.11111,-10.56446 c 0,-2.82455 0.0476,-3.52716 0.24397,-3.60253 0.13418,-0.0515 1.68199,-0.0928 3.43958,-0.0919 l 3.19561,0.002 v 3.60077 3.60077 h -3.43958 -3.43958 z m 78.140269,-0.0189 v -3.52778 h 3.43959 3.43958 v 3.52778 3.52778 h -3.43958 -3.43959 z m -64.087819,-3.90944 c -0.0549,-0.20991 -0.0914,-1.80438 -0.0812,-3.54326 l 0.0186,-3.16161 -3.09972,0.0225 c -1.22431,0.009 -2.64341,-0.002 -4.00368,-0.002 l -0.0478,-3.66785 -0.0478,-3.46548 h -3.35139 c -1.84326,0 -3.39108,-0.052 -3.43958,-0.11563 -0.0485,-0.0636 -0.0882,-14.47016 -0.0882,-32.01458 V 87.755747 l 3.47997,-0.04781 3.47996,-0.04781 0.0478,-3.479963 0.0478,-3.479964 3.49917,-0.08819 3.49918,-0.198572 c 0.27948,-2.227438 0.17249,-6.057435 0.17249,-6.801748 0.73563,0 40.141659,-0.345653 51.184849,-0.114938 l 5.58502,0.116683 v 3.495637 3.495638 l 3.57187,0.04775 3.57188,0.04775 0.0478,3.48368 0.0478,3.48368 h 3.41698 c 4.14643,0 3.56784,-5.154384 3.61803,32.2313 l 0.0427,31.79032 -3.49848,0.0479 -3.49847,0.0479 -0.048,3.4316 c -0.0576,4.11779 0.35467,3.71816 -3.81601,3.69868 l -3.33488,-0.0156 0.0186,3.16064 c 0.0102,1.73836 -0.0263,3.33239 -0.0812,3.5423 l -0.0998,0.38166 H 106.39771 78.040241 Z m 56.863339,-6.85028 -0.0478,-3.48368 -0.0478,-3.48368 c 1.2012,0.01 6.12261,-0.0808 7.10946,-0.0808 l 0.0613,-24.03666 c 0.0337,-13.22016 0.0338,-27.5887 3.1e-4,-31.930066 l -0.0609,-7.893403 h -3.40386 c -4.05428,0 -3.61799,0.469693 -3.61799,-3.894982 v -3.336962 l -56.789889,-0.110386 -0.0478,3.682257 -0.0478,3.571875 -3.45449,0.04773 -3.45449,0.04773 -0.11733,26.604737 c -0.0645,14.6326 -0.0648,28.99947 -6.7e-4,31.92639 l 0.11667,5.32166 3.42965,-0.0477 3.42964,-0.0477 c 0,1.04514 0.13204,4.69884 0.13204,7.14375 z m -77.971359,3.5756 -1e-5,-3.48741 3.35546,0.0362 c 1.8455,0.0199 3.41317,0.0718 3.48369,0.11543 0.0705,0.0436 0.11482,1.5751 0.0984,3.40338 l -0.0298,3.32416 -3.45388,0.0478 -3.45387,0.0478 z m 92.291769,0.0324 0.0478,-3.44759 3.3955,-0.0361 3.3955,-0.0361 -10e-6,3.48368 -1e-5,3.48368 h -3.44332 -3.44331 z M 49.600931,119.77034 V 80.788386 h 3.52306 3.52307 l 0.002,38.981944 0.002,38.98195 h -3.52552 -3.52551 z m 106.605429,38.40868 c -0.0119,-0.31529 -0.0325,-17.83732 -0.0458,-38.93784 l -0.0241,-38.36459 3.52948,-0.04775 3.52948,-0.04775 v 38.9856 38.9856 h -3.48368 -3.48368 z M 56.832871,77.084219 v -3.527777 h 3.43958 3.43959 v 3.527777 3.527778 h -3.43959 -3.43958 z m 92.249449,0.661459 c -0.001,-1.576476 -0.0511,-3.163976 -0.11128,-3.527778 l -0.10933,-0.661458 h 3.55086 3.55086 v 3.527777 3.527778 h -3.43959 -3.43958 z M 63.888431,70.028664 v -3.527777 h 3.43958 3.43958 v 3.527777 3.527778 h -3.43958 -3.43958 z m 78.140269,0 v -3.527777 h 3.43959 3.43958 v 3.527777 3.527778 h -3.43958 -3.43959 z m -67.428369,-3.659879 -3.66378,-0.05147 0.0478,-3.480091 0.0478,-3.48009 h 35.365969 35.36597 l 0.0477,3.454721 0.0477,3.454721 -10.71926,0.116995 c -10.03395,0.109515 -48.405609,0.09948 -56.539989,-0.01479 z"
       id="path16" />
       <rect
       style="font-variation-settings:normal;vector-effect:none;fill:#e8e8e8;fill-opacity:1;stroke-width:0.493549;stroke-linecap:butt;stroke-linejoin:miter;stroke-miterlimit:4;stroke-dasharray:none;stroke-dashoffset:0;stroke-opacity:1;-inkscape-stroke:none;stop-color:#000000"
       id="rect15-3"
       width="7.1380076"
       height="7.1380076"
       x="70.933731"
       y="165.90096" />
       <rect
       style="font-variation-settings:normal;vector-effect:none;fill:#e8e8e8;fill-opacity:1;stroke-width:0.493549;stroke-linecap:butt;stroke-linejoin:miter;stroke-miterlimit:4;stroke-dasharray:none;stroke-dashoffset:0;stroke-opacity:1;-inkscape-stroke:none;stop-color:#000000"
       id="rect15-3-3"
       width="7.1380076"
       height="7.1380076"
       x="148.88643"
       y="80.720474" />
       <rect
       style="font-variation-settings:normal;vector-effect:none;fill:#e8e8e8;fill-opacity:1;stroke-width:0.493549;stroke-linecap:butt;stroke-linejoin:miter;stroke-miterlimit:4;stroke-dasharray:none;stroke-dashoffset:0;stroke-opacity:1;-inkscape-stroke:none;stop-color:#000000"
       id="rect15-3-4"
       width="7.1380076"
       height="7.1380076"
       x="56.748611"
       y="80.670753" />
       <rect
       style="font-variation-settings:normal;vector-effect:none;fill:#e8e8e8;fill-opacity:1;stroke-width:0.493549;stroke-linecap:butt;stroke-linejoin:miter;stroke-miterlimit:4;stroke-dasharray:none;stroke-dashoffset:0;stroke-opacity:1;-inkscape-stroke:none;stop-color:#000000"
       id="rect15-3-4-4"
       width="7.1380076"
       height="7.1380076"
       x="63.842361"
       y="73.622742" />
       <rect
       style="font-variation-settings:normal;vector-effect:none;fill:#e8e8e8;fill-opacity:1;stroke-width:0.493549;stroke-linecap:butt;stroke-linejoin:miter;stroke-miterlimit:4;stroke-dasharray:none;stroke-dashoffset:0;stroke-opacity:1;-inkscape-stroke:none;stop-color:#000000"
       id="rect15-3-4-4-7"
       width="7.1380076"
       height="7.1380076"
       x="70.916641"
       y="66.424316" />
       <rect
       style="font-variation-settings:normal;vector-effect:none;fill:#e8e8e8;fill-opacity:1;stroke-width:0.493549;stroke-linecap:butt;stroke-linejoin:miter;stroke-miterlimit:4;stroke-dasharray:none;stroke-dashoffset:0;stroke-opacity:1;-inkscape-stroke:none;stop-color:#000000"
       id="rect15-3-4-5"
       width="7.1380076"
       height="7.1380076"
       x="134.8235"
       y="165.87704" />
       <rect
       style="font-variation-settings:normal;vector-effect:none;fill:#e8e8e8;fill-opacity:1;stroke-width:0.493549;stroke-linecap:butt;stroke-linejoin:miter;stroke-miterlimit:4;stroke-dasharray:none;stroke-dashoffset:0;stroke-opacity:1;-inkscape-stroke:none;stop-color:#000000"
       id="rect15-3-4-4-6"
       width="7.1380076"
       height="7.1380076"
       x="141.91725"
       y="158.82904" />
       <rect
       style="font-variation-settings:normal;vector-effect:none;fill:#e8e8e8;fill-opacity:1;stroke-width:0.493549;stroke-linecap:butt;stroke-linejoin:miter;stroke-miterlimit:4;stroke-dasharray:none;stroke-dashoffset:0;stroke-opacity:1;-inkscape-stroke:none;stop-color:#000000"
       id="rect15-3-4-4-7-3"
       width="7.1380076"
       height="7.1380076"
       x="148.99153"
       y="151.63062" />
       <path
       id="rect15-3-4-0"
       style="font-variation-settings:normal;vector-effect:none;fill:#e8e8e8;fill-opacity:1;stroke-width:0.853211;stroke-linecap:butt;stroke-linejoin:miter;stroke-miterlimit:4;stroke-dasharray:none;stroke-dashoffset:0;stroke-opacity:1;-inkscape-stroke:none;stop-color:#000000"
       d="m 113.57213,80.534392 v 6.925159 h -7.13238 v 7.16442 h -7.121529 v 21.332039 h 7.138059 v -7.16494 h 7.12153 v -7.12722 h 7.13238 v -7.183023 h 7.11482 v -7.096724 h 6.98975 v -6.798551 h -6.98975 v -0.04134 h -7.11482 v -0.0098 z M 92.177571,101.74085 v 7.12721 h -7.13238 v 7.16443 h -7.12205 v 7.13238 h -7.11843 v 21.33203 h 7.13807 v -7.13238 h 7.11843 v -7.16494 h 7.12204 v -7.12721 h 7.13238 v -21.33152 z" /><rect
       style="font-variation-settings:normal;vector-effect:none;fill:#e8e8e8;fill-opacity:1;stroke-width:0.493549;stroke-linecap:butt;stroke-linejoin:miter;stroke-miterlimit:4;stroke-dasharray:none;stroke-dashoffset:0;stroke-opacity:1;-inkscape-stroke:none;stop-color:#000000"
       id="rect15-3-4-4-7-1"
       width="7.1380076"
       height="7.1380076"
       x="84.552811"
       y="151.62094" />
       <rect
       style="font-variation-settings:normal;vector-effect:none;fill:#e8e8e8;fill-opacity:1;stroke-width:0.493549;stroke-linecap:butt;stroke-linejoin:miter;stroke-miterlimit:4;stroke-dasharray:none;stroke-dashoffset:0;stroke-opacity:1;-inkscape-stroke:none;stop-color:#000000"
       id="rect15-3-4-4-7-1-1"
       width="7.1380076"
       height="7.1380076"
       x="91.685867"
       y="144.487" />
       <rect
       style="font-variation-settings:normal;vector-effect:none;fill:#e8e8e8;fill-opacity:1;stroke-width:0.493549;stroke-linecap:butt;stroke-linejoin:miter;stroke-miterlimit:4;stroke-dasharray:none;stroke-dashoffset:0;stroke-opacity:1;-inkscape-stroke:none;stop-color:#000000"
       id="rect15-3-4-4-7-1-5"
       width="7.1380076"
       height="7.1380076"
       x="98.817032"
       y="137.34973" />
       <rect
       style="font-variation-settings:normal;vector-effect:none;fill:#e8e8e8;fill-opacity:1;stroke-width:0.493549;stroke-linecap:butt;stroke-linejoin:miter;stroke-miterlimit:4;stroke-dasharray:none;stroke-dashoffset:0;stroke-opacity:1;-inkscape-stroke:none;stop-color:#000000"
       id="rect15-3-4-4-7-1-0"
       width="7.1380076"
       height="7.1380076"
       x="105.94759"
       y="130.21245" />
       <rect
       style="font-variation-settings:normal;vector-effect:none;fill:#e8e8e8;fill-opacity:1;stroke-width:0.493549;stroke-linecap:butt;stroke-linejoin:miter;stroke-miterlimit:4;stroke-dasharray:none;stroke-dashoffset:0;stroke-opacity:1;-inkscape-stroke:none;stop-color:#000000"
       id="rect15-3-4-4-7-1-1-9"
       width="7.1380076"
       height="7.1380076"
       x="113.08064"
       y="123.07854" />
       <rect
       style="font-variation-settings:normal;vector-effect:none;fill:#e8e8e8;fill-opacity:1;stroke-width:0.493549;stroke-linecap:butt;stroke-linejoin:miter;stroke-miterlimit:4;stroke-dasharray:none;stroke-dashoffset:0;stroke-opacity:1;-inkscape-stroke:none;stop-color:#000000"
       id="rect15-3-4-4-7-1-5-3"
       width="7.1380076"
       height="7.1380076"
       x="120.21181"
       y="115.94125" />
       <rect
       style="font-variation-settings:normal;vector-effect:none;fill:#e8e8e8;fill-opacity:1;stroke-width:0.493549;stroke-linecap:butt;stroke-linejoin:miter;stroke-miterlimit:4;stroke-dasharray:none;stroke-dashoffset:0;stroke-opacity:1;-inkscape-stroke:none;stop-color:#000000"
       id="rect15-3-4-4-7-1-1-9-4"
       width="7.1380076"
       height="7.1380076"
       x="127.35066"
       y="108.77296" />
       <rect
       style="font-variation-settings:normal;vector-effect:none;fill:#e8e8e8;fill-opacity:1;stroke-width:0.493549;stroke-linecap:butt;stroke-linejoin:miter;stroke-miterlimit:4;stroke-dasharray:none;stroke-dashoffset:0;stroke-opacity:1;-inkscape-stroke:none;stop-color:#000000"
       id="rect15-3-4-4-7-1-5-3-0"
       width="7.1380076"
       height="7.1380076"
       x="134.48183"
       y="101.63567" />
       <path
       id="rect15-3-4-4-7-9"
       style="font-variation-settings:normal;vector-effect:none;fill:#e8e8e8;fill-opacity:1;stroke-width:0.493549;stroke-linecap:butt;stroke-linejoin:miter;stroke-miterlimit:4;stroke-dasharray:none;stroke-dashoffset:0;stroke-opacity:1;-inkscape-stroke:none;stop-color:#000000"
       d="m 134.83853,66.406055 v 0.0036 h -7.09569 v 7.138065 h 7.06262 v 7.057451 h 7.13806 v -7.061068 h 0.0331 v -7.138066 z" /><rect
       style="font-variation-settings:normal;vector-effect:none;fill:#e8e8e8;fill-opacity:1;stroke-width:0.854376;stroke-linecap:butt;stroke-linejoin:miter;stroke-miterlimit:4;stroke-dasharray:none;stroke-dashoffset:0;stroke-opacity:1;-inkscape-stroke:none;stop-color:#000000"
       id="rect15-3-8"
       width="7.1380076"
       height="21.390196"
       x="56.718155"
       y="137.4081" />
    </g>
</svg>
